<svg width="17" height="21" viewBox="0 0 17 21" fill="none" xmlns="http://www.w3.org/2000/svg">
<path d="M14.6876 3.00002H11.2501V2.37501C11.2501 1.34114 10.4089 0.5 9.37506 0.5H6.87505C5.84117 0.5 5.00003 1.34114 5.00003 2.37501V3.00002H1.56251C0.700942 3.00002 0 3.70096 0 4.56253V6.75004C0 7.0952 0.279846 7.37505 0.625004 7.37505H0.966569L1.50653 18.7143C1.55423 19.7157 2.37689 20.5001 3.3794 20.5001H12.8707C13.8733 20.5001 14.6959 19.7157 14.7436 18.7143L15.2835 7.37505H15.6251C15.9703 7.37505 16.2501 7.0952 16.2501 6.75004V4.56253C16.2501 3.70096 15.5492 3.00002 14.6876 3.00002ZM6.25004 2.37501C6.25004 2.0304 6.53044 1.75001 6.87505 1.75001H9.37506C9.71968 1.75001 10.0001 2.0304 10.0001 2.37501V3.00002H6.25004V2.37501ZM1.25001 4.56253C1.25001 4.39022 1.3902 4.25003 1.56251 4.25003H14.6876C14.8599 4.25003 15.0001 4.39022 15.0001 4.56253V6.12504C14.8075 6.12504 2.04818 6.12504 1.25001 6.12504V4.56253ZM13.495 18.6549C13.4791 18.9886 13.2049 19.2501 12.8707 19.2501H3.3794C3.04522 19.2501 2.771 18.9886 2.75514 18.6549L2.21798 7.37505H14.0321L13.495 18.6549Z" fill="#616161"/>
<path d="M8.125 18.0001C8.47016 18.0001 8.75001 17.7202 8.75001 17.3751V9.25C8.75001 8.90485 8.47016 8.625 8.125 8.625C7.77985 8.625 7.5 8.90485 7.5 9.25V17.3751C7.5 17.7202 7.77981 18.0001 8.125 18.0001Z" fill="#616161"/>
<path d="M11.2502 18.0001C11.5954 18.0001 11.8753 17.7202 11.8753 17.3751V9.25C11.8753 8.90485 11.5954 8.625 11.2502 8.625C10.9051 8.625 10.6252 8.90485 10.6252 9.25V17.3751C10.6252 17.7202 10.9051 18.0001 11.2502 18.0001Z" fill="#616161"/>
<path d="M5 18.0001C5.34516 18.0001 5.62501 17.7202 5.62501 17.3751V9.25C5.62501 8.90485 5.34516 8.625 5 8.625C4.65485 8.625 4.375 8.90485 4.375 9.25V17.3751C4.375 17.7202 4.65481 18.0001 5 18.0001Z" fill="#616161"/>
</svg>
