<svg width="18" height="19" viewBox="0 0 18 19" fill="none" xmlns="http://www.w3.org/2000/svg">
<path d="M17.4058 3.90754L14.7225 1.22421C14.0903 0.591982 13.0669 0.591879 12.4346 1.22421C11.9846 1.67432 2.09046 11.5685 1.90175 11.7571C1.82717 11.8317 1.77443 11.9252 1.74931 12.0277L0.397046 17.5347C0.293276 17.9574 0.676843 18.3358 1.09538 18.233C1.38115 18.1629 6.34945 16.9428 6.60234 16.8807C6.70475 16.8556 6.79833 16.8029 6.87288 16.7283C7.07167 16.5295 16.9107 6.69043 17.4058 6.19537C18.038 5.56315 18.0382 4.53983 17.4058 3.90754ZM1.74562 16.8844L1.80071 16.6601L1.96994 16.8293L1.74562 16.8844ZM3.28088 16.5074L2.12262 15.3492L2.6263 13.2981L5.33198 16.0037L3.28088 16.5074ZM6.46467 15.5037L3.12638 12.1654L11.7467 3.54499L15.085 6.88328L6.46467 15.5037ZM16.5894 5.37895L15.9226 6.0457L12.5843 2.70741L13.2511 2.04066C13.432 1.85975 13.7251 1.85958 13.9061 2.04066L16.5894 4.72403C16.7704 4.90501 16.7704 5.1979 16.5894 5.37895Z" fill="#616161"/>
</svg>
